<svg xmlns="http://www.w3.org/2000/svg" width="600" height="600" viewBox="0 0 600 600" version="1.1">
	<path d="M 271 6.134 C 100.347 23.575, -19.143 180.199, 9.044 349.498 C 28.084 463.856, 114.069 557.165, 227.002 586.020 C 281.598 599.969, 341.519 597.701, 394.500 579.679 C 489.373 547.409, 561.286 469.803, 586.020 372.998 C 599.969 318.402, 597.701 258.481, 579.679 205.500 C 541.993 94.705, 444.389 17.608, 327.144 6.023 C 315.016 4.825, 283.197 4.888, 271 6.134 M 191 300 L 191 406.031 219.750 405.765 L 248.500 405.500 248.500 300 L 248.500 194.500 219.750 194.235 L 191 193.969 191 300 M 294 300 L 294 406 322.500 406 L 351 406 351 371 L 351 336 360.750 335.983 C 392.266 335.927, 412.697 329.360, 427.516 314.524 C 435.574 306.456, 440.732 297.457, 444.177 285.455 C 447.202 274.914, 447.442 251.186, 444.626 241 C 440.071 224.519, 429.291 211.188, 414.736 204.036 C 397.626 195.627, 384.205 194.025, 330.750 194.010 L 294 194 294 300 M 351 265.033 L 351 289.273 360.450 288.778 C 376.370 287.946, 385.134 281.947, 388.022 269.907 C 390.725 258.641, 387.649 248.642, 380.120 244.216 C 375.901 241.736, 374.437 241.469, 363.250 241.147 L 351 240.794 351 265.033" stroke="none" fill="black" fill-rule="evenodd"/>
</svg>